
        <svg xmlns="http://www.w3.org/2000/svg" xmlns:xlink="http://www.w3.org/1999/xlink" version="1.1" width="3171.4285714285716" 
        height="855" viewBox="0 0 3171.4285714285716 855">
			<rect fill="#6789ba" width="3171.4285714285716" height="855"/>
			<g transform="scale(8.571428571428571) translate(10, 10)">
				<defs id="SvgjsDefs1135"></defs><g id="SvgjsG1136" featureKey="textGroupContainer" transform="matrix(1,0,0,1,0,30)" fill="#ffffff"><rect xmlns="http://www.w3.org/2000/svg" y="0" x="0" height="1" width="1" opacity="0"></rect><rect xmlns="http://www.w3.org/2000/svg" y="47.75" x="0" width="350" height="2"></rect><rect xmlns="http://www.w3.org/2000/svg" y="-30" x="0" width="350" height="2"></rect></g><g id="SvgjsG1137" featureKey="YhTCwJ-0" transform="matrix(2.472706292607171,0,0,2.472706292607171,-2.472148883368437,-1.0031836055786787)" fill="#ffffff"><path d="M6.8192 14.394400000000001 c0.32538 0.98088 1.2162 3.622 1.4264 4.0572 c0.081308 0.16854 0.010684 0.37112 -0.15768 0.45242 c-0.16836 0.081464 -0.37112 0.010664 -0.45242 -0.1577 c-0.23458 -0.48578 -1.1128 -3.1002 -1.382 -3.9064 l-2.4702 0 l0 3.7779 c0 0.7622 -0.6284 1.3821 -1.4009 1.3821 c-0.7622 0 -1.3821 -0.61992 -1.3821 -1.3821 l0 -2.655 c0 -0.18699 0.15176 -0.33876 0.33876 -0.33876 s0.33876 0.15176 0.33876 0.33876 l0 2.655 c0 0.38856 0.31606 0.7046 0.7046 0.7046 c0.39888 0 0.72342 -0.31606 0.72342 -0.7046 l0 -4.1166 c0 -0.18699 0.15176 -0.33876 0.33876 -0.33876 l3.0532 0 c0.146 0 0.27556 0.093496 0.32146 0.23204 z M3.4446 10.7976 c0.18699 0 0.33872 0.15154 0.33872 0.33872 l0 0.92041 l1.9946 0 c0.8906 0 1.6152 -0.71614 1.6152 -1.5962 c0 -0.91634 -0.70936 -1.6342 -1.6152 -1.6342 l-1.9946 0 l0 0.71801 c0 0.18699 -0.15176 0.33876 -0.33876 0.33876 s-0.33876 -0.15176 -0.33876 -0.33876 l0 -1.0568 c0 -0.18699 0.15176 -0.33876 0.33876 -0.33876 l2.3334 0 c1.2643 0 2.2928 1.0371 2.2928 2.3116 c0 1.2539 -1.0285 2.2738 -2.2928 2.2738 l-2.3334 0 c-0.18699 0 -0.33876 -0.15176 -0.33876 -0.33876 l0 -1.2592 c0 -0.18699 0.15176 -0.33876 0.33876 -0.33876 z M10.707 17.9736 c0.12213 0.35452 0.096562 0.73174 -0.07164 1.0649 c-0.16564 0.3279 -0.45038 0.5752 -0.8015 0.69614 c-0.036426 0.012539 -0.073692 0.018633 -0.11027 0.018633 c-0.14059 0 -0.27204 -0.088242 -0.32032 -0.22866 c-0.061152 -0.17684 0.032852 -0.36976 0.20986 -0.43056 c0.18344 -0.06334 0.33164 -0.19156 0.41734 -0.36128 c0.084864 -0.16803 0.09791 -0.35842 0.036758 -0.53594 c-0.10314 -0.29184 -0.98306 -2.349 -2.0146 -4.4778 c-0.067754 -0.14008 -0.031504 -0.30828 0.088086 -0.40788 c0.8757 -0.72968 1.3579 -1.7421 1.3579 -2.851 c0 -2.0622 -1.6692 -3.74 -3.721 -3.74 l-3.3957 0 c-0.40178 0 -0.70462 0.30286 -0.70462 0.70462 l0 7.0382 c0 0.18699 -0.15176 0.33876 -0.33876 0.33876 s-0.33876 -0.15176 -0.33876 -0.33876 l0 -7.0381 c0 -0.77508 0.60704 -1.3821 1.3821 -1.3821 l3.3957 0 c2.4254 0 4.3984 1.9816 4.3984 4.4174 c0 1.2261 -0.4956 2.3512 -1.4018 3.1954 c0.95954 1.9962 1.8063 3.9602 1.9326 4.3178 z M15.6692 10.8688 c0.17666 0.06166 0.27018 0.25454 0.2087 0.4307 c-0.1709 0.49104 -0.25762 1.0063 -0.25762 1.5315 c0 1.1708 0.43496 2.2876 1.1934 3.0642 c0.77374 0.82876 1.7509 1.2637 2.831 1.2637 c1.0156 0 1.9921 -0.44682 2.7496 -1.2583 c0.7629 -0.79998 1.1989 -1.9177 1.1989 -3.0696 c0 -1.1452 -0.437 -2.2712 -1.199 -3.0888 c-0.74578 -0.7988 -1.7223 -1.239 -2.7494 -1.239 c-1.092 0 -2.069 0.42854 -2.8258 1.2392 c-0.052344 0.054882 -0.10078 0.1084 -0.1477 0.16344 c-0.12145 0.14211 -0.33554 0.15871 -0.47766 0.03709 s-0.15871 -0.33538 -0.03709 -0.47766 c0.055214 -0.064356 0.1118 -0.12703 0.17006 -0.18783 c0.88536 -0.94854 2.0338 -1.4516 3.3182 -1.4516 c1.217 0 2.3694 0.5166 3.2448 1.4546 c0.87774 0.94176 1.3811 2.236 1.3811 3.5508 c0 1.3242 -0.50442 2.6126 -1.3837 3.5346 c-0.88452 0.94768 -2.037 1.4709 -3.2424 1.4709 c-1.2546 0 -2.434 -0.52322 -3.3208 -1.4733 c-0.8757 -0.89652 -1.381 -2.1862 -1.381 -3.5322 c0 -0.60096 0.099434 -1.1914 0.29524 -1.7541 c0.061308 -0.17666 0.25388 -0.27066 0.43122 -0.2085 z M24.430999999999997 7.805999999999999 c1.2892 1.3723 2.0022 3.1592 2.0022 5.0256 c0 1.0581 -0.22052 2.0784 -0.65548 3.032 c-0.077402 0.17006 -0.27796 0.24526 -0.4487 0.1675 c-0.17023 -0.077578 -0.24528 -0.27846 -0.16752 -0.4487 c0.39432 -0.86468 0.59436 -1.7904 0.59436 -2.7508 c0 -1.6933 -0.64788 -3.3152 -1.8242 -4.5676 c-1.0788 -1.2067 -2.6792 -1.9231 -4.287 -1.9231 c-1.6674 0 -3.2708 0.70022 -4.399 1.9209 c-1.1538 1.2283 -1.7881 2.8506 -1.7881 4.5698 c0 1.7377 0.63366 3.3592 1.7844 4.5658 c1.1489 1.2239 2.753 1.9248 4.4026 1.9248 c1.591 0 3.1922 -0.71732 4.283 -1.9189 c0.04539 -0.047598 0.084356 -0.08961 0.12297 -0.13213 c0.12533 -0.13906 0.33976 -0.14957 0.47832 -0.024238 c0.13889 0.12533 0.14973 0.3396 0.024218 0.47832 c-0.04252 0.04709 -0.085878 0.093672 -0.12975 0.13957 c-1.2112 1.3344 -2.9998 2.1348 -4.7788 2.1348 c-1.8361 0 -3.6204 -0.7788 -4.8948 -2.1368 c-1.2697 -1.3312 -1.9699 -3.1188 -1.9699 -5.0314 c0 -1.8921 0.69954 -3.679 1.9699 -5.0314 c1.2543 -1.3571 3.039 -2.1368 4.8948 -2.1368 c1.7976 0 3.5868 0.801 4.7864 2.1428 z M29.117499999999996 12.833400000000001 c0.0084766 1.6747 0.66984 3.2688 1.8621 4.4852 c0.13109 0.13363 0.12889 0.34824 -0.004746 0.47918 c-0.065898 0.064532 -0.1516 0.096718 -0.23712 0.096718 c-0.087734 0 -0.17547 -0.034044 -0.24188 -0.10162 c-1.3163 -1.343 -2.0464 -3.1044 -2.0558 -4.9594 c0.007461 -1.4733 0.47004 -2.888 1.3376 -4.095 c0.67176 -0.9348 1.5702 -1.7109 2.5976 -2.2444 c1.0349 -0.53744 2.198 -0.82454 3.3638 -0.8303 c1.6999 0 3.2872 0.53642 4.5918 1.5508 c0.59436 0.4951 0.7031 1.363 0.25662 1.9831 c-0.003379 0.0045704 -0.0069336 0.0091406 -0.010488 0.013535 c-0.4856 0.6074 -1.3977 0.72816 -1.9909 0.26388 c-0.7788 -0.63688 -1.7607 -0.97124 -2.8454 -0.97124 c-0.22918 0 -0.46022 0.017793 -0.68684 0.052676 c-0.18631 0.02795 -0.3579 -0.098418 -0.38634 -0.2832 c-0.028456 -0.18496 0.098418 -0.3579 0.2832 -0.38634 c0.26084 -0.040136 0.5266 -0.060468 0.79016 -0.060468 c1.2429 0 2.3732 0.3872 3.2688 1.1198 c0.29404 0.2302 0.7771 0.16092 1.0332 -0.15143 c0.23376 -0.33232 0.17447 -0.79304 -0.13668 -1.0525 c-1.1758 -0.91414 -2.6194 -1.4011 -4.1654 -1.4011 c-1.0571 0.005254 -2.1136 0.2661 -3.0534 0.75424 c-0.9338 0.48476 -1.7497 1.1895 -2.3598 2.0384 c-0.7849 1.0922 -1.2034 2.3716 -1.2102 3.6998 z M40.587999999999994 16.4656 c0.45004 0.62518 0.336 1.5139 -0.25394 1.9814 c-1.3069 1.0164 -2.8942 1.5529 -4.5924 1.5529 c-1.2155 0 -2.423 -0.30608 -3.4916 -0.88502 c-0.16463 -0.089102 -0.2256 -0.29472 -0.1365 -0.45936 c0.089102 -0.16447 0.29472 -0.22562 0.4592 -0.13652 c0.96986 0.5254 2.0656 0.80318 3.1688 0.80318 c1.5461 0 2.9896 -0.48698 4.1742 -1.4084 c0.30522 -0.24136 0.36314 -0.7075 0.12975 -1.0424 c-0.25848 -0.30032 -0.74528 -0.36806 -1.0483 -0.14398 c-0.91668 0.7336 -2.0156 1.1096 -3.2556 1.1096 c-1.3474 0 -2.6424 -0.51762 -3.6462 -1.4573 c-0.95022 -0.92888 -1.4921 -2.2202 -1.4921 -3.5482 c0 -1.3237 0.5122 -2.547 1.4814 -3.5378 c0.40498 -0.37942 0.85096 -0.68716 1.3359 -0.9248 c0.16785 -0.082148 0.37094 -0.012871 0.45326 0.15516 c0.082324 0.16785 0.012871 0.37094 -0.15516 0.45326 c-0.4248 0.20816 -0.81524 0.47766 -1.1606 0.80066 c-0.832 0.85114 -1.2775 1.9108 -1.2775 3.0536 c0 1.1467 0.46766 2.2616 1.2829 3.0588 c0.87264 0.81658 2.003 1.2692 3.178 1.2692 c1.0823 0 2.0386 -0.32606 2.8426 -0.96902 c0.60028 -0.44428 1.507 -0.323 1.9895 0.25626 c0.0050782 0.0060938 0.01 0.012363 0.01457 0.018809 z M47.528 13.7074 l1.9701 2.581 c0.11348 0.14889 0.08502 0.36146 -0.063692 0.47494 c-0.14906 0.11348 -0.36164 0.084844 -0.47496 -0.063712 l-1.7328 -2.2702 l-1.6022 1.633 l0 2.5553 c0 0.7622 -0.61992 1.3821 -1.3821 1.3821 s-1.3821 -0.61992 -1.3821 -1.3821 l0 -11.098 c0 -0.7622 0.61992 -1.3821 1.3821 -1.3821 s1.3821 0.61992 1.3821 1.3821 c0 0.18699 -0.15176 0.33876 -0.33876 0.33876 s-0.33876 -0.15176 -0.33876 -0.33876 c0 -0.38196 -0.32268 -0.70462 -0.70462 -0.70462 s-0.70462 0.32268 -0.70462 0.70462 l0 11.098 c0 0.38856 0.31606 0.7046 0.7046 0.7046 s0.7046 -0.31606 0.7046 -0.7046 l0 -2.6938 c0 -0.088594 0.034726 -0.17379 0.096894 -0.23712 l1.9729 -2.0108 c0.06877 -0.070118 0.16209 -0.10756 0.26288 -0.10096 c0.098066 0.0060938 0.18869 0.054376 0.24832 0.13246 z M49.187799999999996 12.464 l4.0248 5.2762 c0.2356 0.27558 0.34654 0.62636 0.31268 0.98968 c-0.034044 0.36738 -0.21952 0.71054 -0.50898 0.94328 c-0.2412 0.21376 -0.54608 0.32672 -0.88264 0.32672 c-0.38992 0 -0.76746 -0.18191 -1.0363 -0.49916 c-0.0035546 -0.0043946 -0.0071094 -0.0089648 -0.010664 -0.013359 l-1.417 -1.8567 c-0.11348 -0.14889 -0.08502 -0.36146 0.063692 -0.47494 c0.14871 -0.11365 0.36144 -0.085196 0.47492 0.063692 l1.4114 1.8495 c0.13924 0.16125 0.32622 0.25356 0.51408 0.25356 c0.17496 0 0.31792 -0.052168 0.43714 -0.15955 c0.0054296 -0.0049218 0.011016 -0.009668 0.016602 -0.014063 c0.1499 -0.11857 0.24576 -0.29422 0.26338 -0.48172 c0.016777 -0.1809 -0.038946 -0.3552 -0.15684 -0.49086 c-0.004746 -0.005586 -0.0094922 -0.011172 -0.01373 -0.016934 l-4.2114 -5.5204 c-0.10299 -0.13516 -0.090118 -0.3257 0.030312 -0.44546 l4.1736 -4.1546 c0.26642 -0.27932 0.26896 -0.73054 -0.00052734 -1 c-0.27592 -0.27574 -0.7246 -0.27608 -1.0005 0.000019531 l-6.1462 6.165 c-0.09705 0.097226 -0.24272 0.12602 -0.36924 0.074024 c-0.1267 -0.0525 -0.20936 -0.17598 -0.20936 -0.31318 l0 -3.673 c0 -0.18699 0.15176 -0.33876 0.33876 -0.33876 s0.33876 0.15176 0.33876 0.33876 l0 2.8534 l5.5678 -5.585 c0.2661 -0.26642 0.61382 -0.41278 0.97952 -0.41278 c0.36586 0 0.7136 0.14652 0.97936 0.41244 c0.52762 0.52728 0.53016 1.4035 0.0054102 1.953 z M64.8892 10.8688 c0.17666 0.06166 0.27018 0.25454 0.2087 0.4307 c-0.1709 0.49104 -0.25762 1.0063 -0.25762 1.5315 c0 1.1708 0.43496 2.2876 1.1934 3.0642 c0.77374 0.82876 1.7509 1.2637 2.831 1.2637 c1.0156 0 1.9921 -0.44682 2.7496 -1.2583 c0.7629 -0.79998 1.1989 -1.9177 1.1989 -3.0696 c0 -1.1452 -0.437 -2.2712 -1.199 -3.0888 c-0.74578 -0.7988 -1.7223 -1.239 -2.7494 -1.239 c-1.092 0 -2.069 0.42854 -2.8258 1.2392 c-0.052344 0.054882 -0.10078 0.1084 -0.1477 0.16344 c-0.12145 0.14211 -0.33554 0.15871 -0.47766 0.03709 s-0.15871 -0.33538 -0.03709 -0.47766 c0.055214 -0.064356 0.1118 -0.12703 0.17006 -0.18783 c0.88536 -0.94854 2.0338 -1.4516 3.3182 -1.4516 c1.217 0 2.3694 0.5166 3.2448 1.4546 c0.87774 0.94176 1.3811 2.236 1.3811 3.5508 c0 1.3242 -0.50442 2.6126 -1.3837 3.5346 c-0.88452 0.94768 -2.037 1.4709 -3.2424 1.4709 c-1.2546 0 -2.434 -0.52322 -3.3208 -1.4733 c-0.8757 -0.89652 -1.381 -2.1862 -1.381 -3.5322 c0 -0.60096 0.099434 -1.1914 0.29524 -1.7541 c0.061308 -0.17666 0.25388 -0.27066 0.43122 -0.2085 z M73.651 7.805999999999999 c1.2892 1.3723 2.0022 3.1592 2.0022 5.0256 c0 1.0581 -0.22052 2.0784 -0.65548 3.032 c-0.077402 0.17006 -0.27796 0.24526 -0.4487 0.1675 c-0.17023 -0.077578 -0.24528 -0.27846 -0.16752 -0.4487 c0.39432 -0.86468 0.59436 -1.7904 0.59436 -2.7508 c0 -1.6933 -0.64788 -3.3152 -1.8242 -4.5676 c-1.0788 -1.2067 -2.6792 -1.9231 -4.287 -1.9231 c-1.6674 0 -3.2708 0.70022 -4.399 1.9209 c-1.1538 1.2283 -1.7881 2.8506 -1.7881 4.5698 c0 1.7377 0.63366 3.3592 1.7844 4.5658 c1.1489 1.2239 2.753 1.9248 4.4026 1.9248 c1.591 0 3.1922 -0.71732 4.283 -1.9189 c0.04539 -0.047598 0.084356 -0.08961 0.12297 -0.13213 c0.12533 -0.13906 0.33976 -0.14957 0.47832 -0.024238 c0.13889 0.12533 0.14973 0.3396 0.024218 0.47832 c-0.04252 0.04709 -0.085878 0.093672 -0.12975 0.13957 c-1.2112 1.3344 -2.9998 2.1348 -4.7788 2.1348 c-1.8361 0 -3.6204 -0.7788 -4.8948 -2.1368 c-1.2697 -1.3312 -1.9699 -3.1188 -1.9699 -5.0314 c0 -1.8921 0.69954 -3.679 1.9699 -5.0314 c1.2543 -1.3571 3.039 -2.1368 4.8948 -2.1368 c1.7976 0 3.5868 0.801 4.7864 2.1428 z M83.47919999999999 14.394400000000001 c0.32538 0.98088 1.2162 3.622 1.4264 4.0572 c0.081308 0.16854 0.010684 0.37112 -0.15768 0.45242 c-0.16836 0.081464 -0.37112 0.010664 -0.45242 -0.1577 c-0.23458 -0.48578 -1.1128 -3.1002 -1.382 -3.9064 l-2.4702 0 l0 3.7779 c0 0.7622 -0.6284 1.3821 -1.4009 1.3821 c-0.7622 0 -1.3821 -0.61992 -1.3821 -1.3821 l0 -2.655 c0 -0.18699 0.15176 -0.33876 0.33876 -0.33876 s0.33876 0.15176 0.33876 0.33876 l0 2.655 c0 0.38856 0.31606 0.7046 0.7046 0.7046 c0.39888 0 0.72342 -0.31606 0.72342 -0.7046 l0 -4.1166 c0 -0.18699 0.15176 -0.33876 0.33876 -0.33876 l3.0532 0 c0.146 0 0.27556 0.093496 0.32146 0.23204 z M80.10459999999999 10.7976 c0.18699 0 0.33872 0.15154 0.33872 0.33872 l0 0.92041 l1.9946 0 c0.8906 0 1.6152 -0.71614 1.6152 -1.5962 c0 -0.91634 -0.70936 -1.6342 -1.6152 -1.6342 l-1.9946 0 l0 0.71801 c0 0.18699 -0.15176 0.33876 -0.33876 0.33876 s-0.33876 -0.15176 -0.33876 -0.33876 l0 -1.0568 c0 -0.18699 0.15176 -0.33876 0.33876 -0.33876 l2.3334 0 c1.2643 0 2.2928 1.0371 2.2928 2.3116 c0 1.2539 -1.0285 2.2738 -2.2928 2.2738 l-2.3334 0 c-0.18699 0 -0.33876 -0.15176 -0.33876 -0.33876 l0 -1.2592 c0 -0.18699 0.15176 -0.33876 0.33876 -0.33876 z M87.36699999999999 17.9736 c0.12213 0.35452 0.096562 0.73174 -0.07164 1.0649 c-0.16564 0.3279 -0.45038 0.5752 -0.8015 0.69614 c-0.036426 0.012539 -0.073692 0.018633 -0.11027 0.018633 c-0.14059 0 -0.27204 -0.088242 -0.32032 -0.22866 c-0.061152 -0.17684 0.032852 -0.36976 0.20986 -0.43056 c0.18344 -0.06334 0.33164 -0.19156 0.41734 -0.36128 c0.084864 -0.16803 0.09791 -0.35842 0.036758 -0.53594 c-0.10314 -0.29184 -0.98306 -2.349 -2.0146 -4.4778 c-0.067754 -0.14008 -0.031504 -0.30828 0.088086 -0.40788 c0.8757 -0.72968 1.3579 -1.7421 1.3579 -2.851 c0 -2.0622 -1.6692 -3.74 -3.721 -3.74 l-3.3957 0 c-0.40178 0 -0.70462 0.30286 -0.70462 0.70462 l0 7.0382 c0 0.18699 -0.15176 0.33876 -0.33876 0.33876 s-0.33876 -0.15176 -0.33876 -0.33876 l0 -7.0381 c0 -0.77508 0.60704 -1.3821 1.3821 -1.3821 l3.3957 0 c2.4254 0 4.3984 1.9816 4.3984 4.4174 c0 1.2261 -0.4956 2.3512 -1.4018 3.1954 c0.95954 1.9962 1.8063 3.9602 1.9326 4.3178 z M101.71919999999999 14.394400000000001 c0.32538 0.98088 1.2162 3.622 1.4264 4.0572 c0.081308 0.16854 0.010684 0.37112 -0.15768 0.45242 c-0.16836 0.081464 -0.37112 0.010664 -0.45242 -0.1577 c-0.23458 -0.48578 -1.1128 -3.1002 -1.382 -3.9064 l-2.4702 0 l0 3.7779 c0 0.7622 -0.6284 1.3821 -1.4009 1.3821 c-0.7622 0 -1.3821 -0.61992 -1.3821 -1.3821 l0 -2.655 c0 -0.18699 0.15176 -0.33876 0.33876 -0.33876 s0.33876 0.15176 0.33876 0.33876 l0 2.655 c0 0.38856 0.31606 0.7046 0.7046 0.7046 c0.39888 0 0.72342 -0.31606 0.72342 -0.7046 l0 -4.1166 c0 -0.18699 0.15176 -0.33876 0.33876 -0.33876 l3.0532 0 c0.146 0 0.27556 0.093496 0.32146 0.23204 z M98.34459999999999 10.7976 c0.18699 0 0.33872 0.15154 0.33872 0.33872 l0 0.92041 l1.9946 0 c0.8906 0 1.6152 -0.71614 1.6152 -1.5962 c0 -0.91634 -0.70936 -1.6342 -1.6152 -1.6342 l-1.9946 0 l0 0.71801 c0 0.18699 -0.15176 0.33876 -0.33876 0.33876 s-0.33876 -0.15176 -0.33876 -0.33876 l0 -1.0568 c0 -0.18699 0.15176 -0.33876 0.33876 -0.33876 l2.3334 0 c1.2643 0 2.2928 1.0371 2.2928 2.3116 c0 1.2539 -1.0285 2.2738 -2.2928 2.2738 l-2.3334 0 c-0.18699 0 -0.33876 -0.15176 -0.33876 -0.33876 l0 -1.2592 c0 -0.18699 0.15176 -0.33876 0.33876 -0.33876 z M105.607 17.9736 c0.12213 0.35452 0.096562 0.73174 -0.07164 1.0649 c-0.16564 0.3279 -0.45038 0.5752 -0.8015 0.69614 c-0.036426 0.012539 -0.073692 0.018633 -0.11027 0.018633 c-0.14059 0 -0.27204 -0.088242 -0.32032 -0.22866 c-0.061152 -0.17684 0.032852 -0.36976 0.20986 -0.43056 c0.18344 -0.06334 0.33164 -0.19156 0.41734 -0.36128 c0.084864 -0.16803 0.09791 -0.35842 0.036758 -0.53594 c-0.10314 -0.29184 -0.98306 -2.349 -2.0146 -4.4778 c-0.067754 -0.14008 -0.031504 -0.30828 0.088086 -0.40788 c0.8757 -0.72968 1.3579 -1.7421 1.3579 -2.851 c0 -2.0622 -1.6692 -3.74 -3.721 -3.74 l-3.3957 0 c-0.40178 0 -0.70462 0.30286 -0.70462 0.70462 l0 7.0382 c0 0.18699 -0.15176 0.33876 -0.33876 0.33876 s-0.33876 -0.15176 -0.33876 -0.33876 l0 -7.0381 c0 -0.77508 0.60704 -1.3821 1.3821 -1.3821 l3.3957 0 c2.4254 0 4.3984 1.9816 4.3984 4.4174 c0 1.2261 -0.4956 2.3512 -1.4018 3.1954 c0.95954 1.9962 1.8063 3.9602 1.9326 4.3178 z M111.81039999999999 19.32248 c0.18717 0 0.33894 0.15156 0.33894 0.33856 s-0.15176 0.33876 -0.33876 0.33876 l-2.6914 0 c-0.010332 0 -0.020488 -0.00033204 -0.030488 -0.0010156 c-0.0088086 0.0006836 -0.017617 0.0010156 -0.026426 0.0010156 c-0.76204 0 -1.3821 -0.61992 -1.3821 -1.3821 l0 -7.4639 c0 -0.18699 0.15176 -0.33876 0.33876 -0.33876 s0.33876 0.15176 0.33876 0.33876 l0 7.4641 c0 0.3618 0.27388 0.66076 0.62518 0.70024 c0.067578 -0.020488 0.14125 -0.019805 0.2102 0.004414 l2.6174 0 z M108.01899999999999 10.057 c-0.18717 0 -0.33876 -0.1516 -0.33876 -0.33878 l0 -2.2932 c0 -0.77508 0.60704 -1.3821 1.3821 -1.3821 l6.2034 0 c0.76204 0 1.3821 0.61992 1.3821 1.3821 c0 0.75934 -0.63296 1.4009 -1.3821 1.4009 l-1.7092 0 c-0.18699 0 -0.33876 -0.15176 -0.33876 -0.33876 s0.15176 -0.33876 0.33876 -0.33876 l1.7092 0 c0.37536 0 0.70462 -0.33808 0.70462 -0.72342 c0 -0.38196 -0.32268 -0.70462 -0.70462 -0.70462 l-6.2034 0 c-0.4016 0 -0.70462 0.30286 -0.70462 0.70462 l0 2.2932 c0 0.18699 -0.15176 0.33876 -0.33876 0.33876 z M115.26559999999999 17.2166 c0.74934 0 1.3823 0.6416 1.3821 1.4009 c0 0.74916 -0.63296 1.3821 -1.3821 1.3821 l-1.9226 0 c-0.18699 0 -0.33876 -0.15176 -0.33876 -0.33876 s0.15176 -0.33876 0.33876 -0.33876 l1.9226 0 c0.37536 0 0.70462 -0.32928 0.70462 -0.70462 c0 -0.3855 -0.32928 -0.7236 -0.70462 -0.7236 l-5.141 0 c-0.18699 0 -0.33876 -0.15176 -0.33876 -0.33876 l0 -3.4906 c0 -0.18699 0.15176 -0.33876 0.33876 -0.33876 l4.4201 0 c0.38856 0 0.7046 -0.32454 0.7046 -0.72342 c0 -0.37536 -0.32928 -0.70462 -0.70462 -0.70462 l-4.4201 0 c-0.18699 0 -0.33876 -0.15176 -0.33876 -0.33876 l0 -3.4716 c0 -0.18699 0.15176 -0.33876 0.33876 -0.33876 l1.7053 0 c0.18699 0 0.33876 0.15176 0.33876 0.33876 s-0.15176 0.33876 -0.33876 0.33876 l-1.3666 0 l0 2.7943 l4.0814 0 c0.74916 0 1.3821 0.63296 1.3821 1.3821 c0 0.77236 -0.61992 1.4009 -1.3821 1.4009 l-4.0814 0 l0 2.8131 l4.8023 0 z M121.41219999999998 13.119 c-0.84724 -0.4016 -1.4886 -0.94178 -1.9056 -1.6061 c-0.31962 -0.51136 -0.48816 -1.1113 -0.48816 -1.7358 c0 -1.156 0.60316 -2.265 1.655 -3.0422 c0.95632 -0.69192 2.1924 -1.0718 3.483 -1.0718 c1.8915 0 3.2672 0.89076 4.272 1.5413 l0.047774 0.030996 c0.29386 0.2041 0.48882 0.50018 0.5581 0.84012 c0.071132 0.34876 0.00066406 0.69836 -0.19854 0.98444 c-0.17734 0.2849 -0.47004 0.4902 -0.81454 0.56438 c-0.34704 0.074024 -0.70156 0.0066016 -0.99848 -0.19141 c-0.94988 -0.63314 -1.821 -1.1572 -2.8664 -1.1572 c-0.72596 0 -1.4267 0.21088 -1.923 0.5786 c-0.38736 0.28694 -0.58384 0.5974 -0.58384 0.92296 c0 0.18514 0.029648 0.26898 0.081308 0.35146 c0.043184 0.069102 0.15498 0.2124 0.41786 0.39414 c0.45292 0.3137 1.2573 0.59538 2.2098 0.77442 l0.0066016 0 c0.18699 0 0.33876 0.15176 0.33876 0.33876 s-0.15176 0.33876 -0.33876 0.33876 l-0.037949 0 c-0.020664 0 -0.041328 -0.0018555 -0.06166 -0.005586 c-1.0722 -0.19852 -1.9609 -0.51424 -2.5024 -0.88924 c-0.2766 -0.19141 -0.4807 -0.39076 -0.60654 -0.59214 c-0.12941 -0.20682 -0.18445 -0.41922 -0.18445 -0.71054 c0 -0.37942 0.14871 -0.9421 0.85806 -1.4675 c0.61028 -0.45224 1.4582 -0.71156 2.3262 -0.71156 c1.2351 0 2.199 0.57572 3.2422 1.271 c0.1433 0.095704 0.31386 0.12855 0.47986 0.092812 c0.16396 -0.03539 0.3032 -0.13295 0.3918 -0.27488 c0.10162 -0.14668 0.13381 -0.3108 0.1001 -0.47612 c-0.033868 -0.166 -0.13295 -0.31658 -0.27168 -0.41296 l-0.038614 -0.024726 c-0.9338 -0.60452 -2.2126 -1.4324 -3.9038 -1.4324 c-1.1491 0 -2.2442 0.33436 -3.0828 0.9414 c-0.87434 0.6462 -1.3774 1.5564 -1.3774 2.4954 c0 0.4973 0.13297 0.97308 0.38466 1.376 c0.34722 0.55202 0.89296 1.0076 1.622 1.353 c0.61368 0.29066 1.3776 0.52204 2.3344 0.70716 l0.0055859 0 c0.02084 0 0.04168 0.0020312 0.062012 0.0057618 c1.1591 0.21614 2.1258 0.55032 2.7226 0.94126 c0.30064 0.20054 0.52016 0.42176 0.67394 0.67836 c0.15346 0.25558 0.219 0.48934 0.219 0.78118 c0 0.4287 -0.16564 1.061 -0.9541 1.6391 c-0.66498 0.48782 -1.6023 0.76746 -2.5716 0.76746 c-0.18699 0 -0.33876 -0.15176 -0.33876 -0.33876 s0.15176 -0.33876 0.33876 -0.33876 c0.82826 0 1.6194 -0.23188 2.171 -0.63634 c0.44936 -0.32946 0.67716 -0.69716 0.67716 -1.0927 c0 -0.16887 -0.032188 -0.28202 -0.12246 -0.43292 c-0.10264 -0.1709 -0.25084 -0.31758 -0.46662 -0.46172 c-0.50848 -0.333 -1.3984 -0.6372 -2.4426 -0.83454 l-0.0062695 0 c-0.021348 0 -0.042696 -0.0020312 -0.063692 -0.0060938 c-1.0287 -0.19682 -1.8557 -0.44732 -2.5288 -0.7661 z M129.16799999999998 13.829 c0.32638 0.5222 0.5063 1.1587 0.5063 1.7915 c0 1.2324 -0.64602 2.4044 -1.7722 3.2154 c-1.0046 0.73782 -2.322 1.1452 -3.7076 1.1452 c-2.151 -0.01998 -3.942 -1.0823 -5.0662 -1.97 c-0.55792 -0.45648 -0.65008 -1.2881 -0.21002 -1.8578 c0.46664 -0.57014 1.3019 -0.65058 1.8676 -0.18783 c0.25982 0.21258 0.56352 0.42176 0.87822 0.60486 c0.39262 0.22882 0.78948 0.41176 1.1804 0.54386 c0.17734 0.059786 0.27218 0.2522 0.2124 0.42938 s-0.25236 0.2727 -0.42936 0.2124 c-0.43378 -0.14668 -0.87266 -0.34876 -1.3042 -0.60028 c-0.34502 -0.20072 -0.67938 -0.43108 -0.9663 -0.666 c-0.27204 -0.22292 -0.68802 -0.18379 -0.90822 0.085196 c-0.20852 0.26982 -0.16346 0.68922 0.10416 0.90806 c1.0368 0.81844 2.6888 1.8024 4.645 1.8205 c1.2392 0 2.4142 -0.3606 3.306 -1.0156 c0.9497 -0.68396 1.4931 -1.6555 1.4931 -2.6674 c0 -0.50746 -0.14346 -1.0163 -0.40378 -1.4331 c-0.35536 -0.57148 -0.9304 -1.0454 -1.7583 -1.4494 c-0.36146 -0.17191 -0.7673 -0.3225 -1.2373 -0.45954 c-0.17955 -0.052168 -0.28288 -0.24018 -0.23038 -0.41988 c0.052168 -0.17955 0.24002 -0.28304 0.4199 -0.23038 c0.50526 0.14703 0.94394 0.31048 1.3416 0.49936 c0.94904 0.4629 1.615 1.0192 2.0394 1.7016 z M138.146 12.4952 c0.18717 0 0.3388 0.15162 0.3388 0.33878 l0 5.7837 c0 0.77508 -0.60704 1.3821 -1.382 1.3821 c-0.7622 0 -1.3821 -0.61992 -1.3821 -1.3821 l0 -9.7915 l-2.6586 0 c-0.7622 0 -1.3821 -0.6284 -1.3821 -1.4009 c0 -0.77508 0.60704 -1.3821 1.3821 -1.3821 c0.18699 0 0.33876 0.15176 0.33876 0.33876 s-0.15176 0.33876 -0.33876 0.33876 c-0.40178 0 -0.70462 0.30286 -0.70462 0.70462 c0 0.39888 0.31606 0.72342 0.7046 0.72342 l2.9973 0 c0.18699 0 0.33876 0.15176 0.33876 0.33876 l0 10.13 c0 0.38856 0.31606 0.7046 0.7046 0.7046 c0.4016 0 0.70446 -0.30286 0.70446 -0.70462 l0 -5.7837 c0 -0.18699 0.15176 -0.33876 0.33876 -0.33876 z M141.16299999999998 6.042999999999999 c0.7622 0 1.3821 0.61988 1.3821 1.3823 c0 0.75934 -0.63296 1.4009 -1.3821 1.4009 l-2.6777 0 l0 2.196 c0 0.18699 -0.15176 0.33876 -0.33876 0.33876 s-0.33876 -0.15176 -0.33876 -0.33876 l0 -2.5349 c0 -0.18699 0.15176 -0.33876 0.33876 -0.33876 l3.0165 0 c0.37536 0 0.70462 -0.33808 0.70462 -0.72342 c0 -0.38856 -0.31606 -0.7046 -0.7046 -0.7046 l-6.292 0 c-0.18699 0 -0.33876 -0.15176 -0.33876 -0.33876 s0.15176 -0.33876 0.33876 -0.33876 l6.292 0 z"></path></g><g id="SvgjsG1138" featureKey="duLK5n-0" transform="matrix(0.4270701430909149,0,0,0.4270701430909149,34.24835655223285,55.7536111532361)" fill="#ffffff"><path d="M3.7 13.84 l0 6.16 l-1.94 0 l0 -14.36 l6.64 0 c2.36 0 4.72 0.82 4.72 3.86 c0 2.12 -1.08 2.9 -2 3.44 c0.82 0.34 1.64 0.7 1.72 2.7 l0.12 2.6 c0.02 0.8 0.12 1.1 0.72 1.44 l0 0.32 l-2.38 0 c-0.28 -0.88 -0.34 -3.06 -0.34 -3.6 c0 -1.18 -0.24 -2.56 -2.56 -2.56 l-4.7 0 z M3.7 7.300000000000001 l0 4.88 l4.5 0 c1.42 0 2.92 -0.36 2.92 -2.48 c0 -2.22 -1.62 -2.4 -2.58 -2.4 l-4.84 0 z M32.217999999999996 12.82 c0 -3.38 -1.88 -5.84 -5 -5.84 s-5 2.46 -5 5.84 s1.88 5.84 5 5.84 s5 -2.46 5 -5.84 z M34.217999999999996 12.82 c0 3.1 -1.64 7.56 -7 7.56 s-7 -4.46 -7 -7.56 s1.64 -7.56 7 -7.56 s7 4.46 7 7.56 z M53.476 9.96 l-1.88 0 c-0.54 -2.52 -2.64 -2.98 -4.02 -2.98 c-2.6 0 -4.7 1.92 -4.7 5.7 c0 3.38 1.2 5.98 4.76 5.98 c1.26 0 3.44 -0.6 4.1 -3.94 l1.88 0 c-0.8 5.42 -5.2 5.66 -6.28 5.66 c-3.26 0 -6.46 -2.12 -6.46 -7.64 c0 -4.42 2.52 -7.48 6.7 -7.48 c3.7 0 5.62 2.3 5.9 4.7 z M62.894 14.96 l0 5.04 l-1.94 0 l0 -14.36 l1.94 0 l0 6.96 l6.96 -6.96 l2.68 0 l-5.98 5.8 l6.14 8.56 l-2.52 0 l-5.02 -7.2 z M93.36999999999999 18.06 l2.8 -8.52 l1.94 0 c-1.22 3.42 -2.42 6.84 -3.76 10.26 c-1.66 4.24 -1.84 4.48 -4.1 4.48 c-0.26 0 -0.46 -0.08 -0.74 -0.16 l0 -1.6 c0.22 0.08 0.58 0.18 1.06 0.18 c0.92 0 1.02 -0.26 1.86 -2.42 l-3.88 -10.74 l2 0 l2.78 8.52 l0.04 0 z M104.02799999999999 14.76 c0 -2.7 1.52 -5.52 4.86 -5.52 s4.86 2.82 4.86 5.52 s-1.52 5.52 -4.86 5.52 s-4.86 -2.82 -4.86 -5.52 z M105.84799999999998 14.76 c0 1.4 0.52 4 3.04 4 s3.04 -2.6 3.04 -4 s-0.52 -4 -3.04 -4 s-3.04 2.6 -3.04 4 z M129.226 20 l-1.66 0 l0 -1.52 l-0.04 -0.04 c-0.74 1.22 -1.64 1.86 -3.32 1.86 c-1.54 0 -3.4 -0.74 -3.4 -3.24 l0 -7.52 l1.76 0 l0 6.94 c0 1.72 0.88 2.3 2.02 2.3 c2.22 0 2.88 -1.96 2.88 -3.48 l0 -5.76 l1.76 0 l0 10.46 z M138.864 13.92 l0 6.08 l-1.76 0 l0 -10.46 l1.66 0 l0 1.74 l0.04 0 c0.7 -1.22 1.62 -2.04 2.94 -2.04 c0.22 0 0.32 0.02 0.46 0.06 l0 1.82 l-0.66 0 c-1.64 0 -2.68 1.28 -2.68 2.8 z M167.31999999999996 13.059999999999999 l-1.7 0 c-0.22 -1.4 -1 -2.24 -2.48 -2.24 c-2.18 0 -2.88 2.08 -2.88 3.94 c0 1.8 0.44 4.02 2.86 4.02 c1.18 0 2.2 -0.88 2.5 -2.48 l1.7 0 c-0.18 1.66 -1.2 4 -4.26 4 c-2.94 0 -4.68 -2.22 -4.68 -5.24 c0 -3.24 1.56 -5.82 5.02 -5.82 c2.74 0 3.78 2 3.92 3.82 z M182.59799999999996 12.879999999999999 l0 7.12 l-1.76 0 l0 -6.84 c0 -1.42 -0.4 -2.34 -2.08 -2.34 c-1.44 0 -2.92 0.84 -2.92 3.48 l0 5.7 l-1.76 0 l0 -14.36 l1.76 0 l0 5.3 l0.04 0 c0.5 -0.66 1.38 -1.7 3.06 -1.7 c1.62 0 3.66 0.66 3.66 3.64 z M191.75599999999997 12.719999999999999 l-1.62 0 c0.08 -2.5 1.74 -3.48 4.32 -3.48 c0.84 0 3.88 0.24 3.88 2.92 l0 6.02 c0 0.44 0.22 0.62 0.58 0.62 c0.16 0 0.38 -0.04 0.58 -0.08 l0 1.28 c-0.3 0.08 -0.56 0.2 -0.96 0.2 c-1.56 0 -1.8 -0.8 -1.86 -1.6 c-0.68 0.74 -1.74 1.7 -3.78 1.7 c-1.92 0 -3.28 -1.22 -3.28 -3.02 c0 -0.88 0.26 -2.92 3.18 -3.28 l2.9 -0.36 c0.42 -0.04 0.92 -0.2 0.92 -1.24 c0 -1.1 -0.8 -1.7 -2.46 -1.7 c-2 0 -2.28 1.22 -2.4 2.02 z M196.57599999999996 16.38 l0 -1.72 c-0.28 0.22 -0.72 0.38 -2.9 0.66 c-0.86 0.12 -2.24 0.38 -2.24 1.7 c0 1.14 0.58 1.82 1.9 1.82 c1.64 0 3.24 -1.06 3.24 -2.46 z M208.11399999999995 5.640000000000001 l0 14.36 l-1.76 0 l0 -14.36 l1.76 0 z M217.55199999999994 5.640000000000001 l0 14.36 l-1.76 0 l0 -14.36 l1.76 0 z M232.30999999999992 16.72 l1.76 0 c-0.06 0.5 -0.54 1.98 -1.86 2.86 c-0.48 0.32 -1.16 0.72 -2.84 0.72 c-2.94 0 -4.68 -2.22 -4.68 -5.24 c0 -3.24 1.56 -5.82 5.02 -5.82 c3.02 0 4.5 2.4 4.5 6.1 l-7.64 0 c0 2.18 1.02 3.44 3.04 3.44 c1.66 0 2.64 -1.28 2.7 -2.06 z M226.56999999999994 13.940000000000001 l5.82 0 c-0.1 -1.62 -0.78 -3.12 -2.92 -3.12 c-1.62 0 -2.9 1.5 -2.9 3.12 z M249.82799999999992 12.879999999999999 l0 7.12 l-1.76 0 l0 -6.44 c0 -1.82 -0.52 -2.74 -2.24 -2.74 c-1 0 -2.76 0.64 -2.76 3.48 l0 5.7 l-1.76 0 l0 -10.46 l1.66 0 l0 1.48 l0.04 0 c0.38 -0.56 1.36 -1.78 3.16 -1.78 c1.62 0 3.66 0.66 3.66 3.64 z M258.7459999999999 14.74 c0 2.3 0.9 4.04 2.82 4.04 c1.12 0 2.86 -0.74 2.86 -3.52 c0 -1.7 -0.28 -4.44 -2.82 -4.44 c-2.72 0 -2.86 2.58 -2.86 3.92 z M266.10599999999994 9.54 l0 9.6 c0 1.5 -0.02 5.26 -4.86 5.26 c-1.24 0 -3.66 -0.34 -4 -3.12 l1.76 0 c0.32 1.66 1.94 1.66 2.36 1.66 c3.04 0 2.98 -2.44 2.98 -3.68 l0 -0.44 l-0.04 0 l0 0.08 c-0.46 0.74 -1.38 1.4 -2.78 1.4 c-3.56 0 -4.6 -3.34 -4.6 -5.84 c0 -2.94 1.58 -5.22 4.36 -5.22 c1.9 0 2.7 1.18 3.12 1.78 l0.04 0 l0 -1.48 l1.66 0 z M280.66399999999993 16.72 l1.76 0 c-0.06 0.5 -0.54 1.98 -1.86 2.86 c-0.48 0.32 -1.16 0.72 -2.84 0.72 c-2.94 0 -4.68 -2.22 -4.68 -5.24 c0 -3.24 1.56 -5.82 5.02 -5.82 c3.02 0 4.5 2.4 4.5 6.1 l-7.64 0 c0 2.18 1.02 3.44 3.04 3.44 c1.66 0 2.64 -1.28 2.7 -2.06 z M274.9239999999999 13.940000000000001 l5.82 0 c-0.1 -1.62 -0.78 -3.12 -2.92 -3.12 c-1.62 0 -2.9 1.5 -2.9 3.12 z M297.3019999999999 12.52 l-1.7 0 c-0.02 -0.66 -0.26 -1.76 -2.48 -1.76 c-0.54 0 -2.08 0.18 -2.08 1.48 c0 0.86 0.54 1.06 1.9 1.4 l1.76 0.44 c2.18 0.54 2.94 1.34 2.94 2.76 c0 2.16 -1.78 3.46 -4.14 3.46 c-4.14 0 -4.44 -2.4 -4.5 -3.66 l1.7 0 c0.06 0.82 0.3 2.14 2.78 2.14 c1.26 0 2.4 -0.5 2.4 -1.66 c0 -0.84 -0.58 -1.12 -2.08 -1.5 l-2.04 -0.5 c-1.46 -0.36 -2.42 -1.1 -2.42 -2.54 c0 -2.3 1.9 -3.34 3.96 -3.34 c3.74 0 4 2.76 4 3.28 z M304.7999999999999 20 l0 -2.12 l2.08 0 l0 1.96 c0 2.72 -1.68 3.04 -2.08 3.1 l0 -0.92 c0.84 -0.08 1.06 -1.08 1.06 -2.02 l-1.06 0 z M324.87599999999986 14.76 c0 -2.7 1.52 -5.52 4.86 -5.52 s4.86 2.82 4.86 5.52 s-1.52 5.52 -4.86 5.52 s-4.86 -2.82 -4.86 -5.52 z M326.69599999999986 14.76 c0 1.4 0.52 4 3.04 4 s3.04 -2.6 3.04 -4 s-0.52 -4 -3.04 -4 s-3.04 2.6 -3.04 4 z M343.5939999999999 13.92 l0 6.08 l-1.76 0 l0 -10.46 l1.66 0 l0 1.74 l0.04 0 c0.7 -1.22 1.62 -2.04 2.94 -2.04 c0.22 0 0.32 0.02 0.46 0.06 l0 1.82 l-0.66 0 c-1.64 0 -2.68 1.28 -2.68 2.8 z M365.8099999999999 13.92 l0 6.08 l-1.76 0 l0 -10.46 l1.66 0 l0 1.74 l0.04 0 c0.7 -1.22 1.62 -2.04 2.94 -2.04 c0.22 0 0.32 0.02 0.46 0.06 l0 1.82 l-0.66 0 c-1.64 0 -2.68 1.28 -2.68 2.8 z M382.5879999999999 16.72 l1.76 0 c-0.06 0.5 -0.54 1.98 -1.86 2.86 c-0.48 0.32 -1.16 0.72 -2.84 0.72 c-2.94 0 -4.68 -2.22 -4.68 -5.24 c0 -3.24 1.56 -5.82 5.02 -5.82 c3.02 0 4.5 2.4 4.5 6.1 l-7.64 0 c0 2.18 1.02 3.44 3.04 3.44 c1.66 0 2.64 -1.28 2.7 -2.06 z M376.8479999999999 13.940000000000001 l5.82 0 c-0.1 -1.62 -0.78 -3.12 -2.92 -3.12 c-1.62 0 -2.9 1.5 -2.9 3.12 z M399.2259999999999 12.52 l-1.7 0 c-0.02 -0.66 -0.26 -1.76 -2.48 -1.76 c-0.54 0 -2.08 0.18 -2.08 1.48 c0 0.86 0.54 1.06 1.9 1.4 l1.76 0.44 c2.18 0.54 2.94 1.34 2.94 2.76 c0 2.16 -1.78 3.46 -4.14 3.46 c-4.14 0 -4.44 -2.4 -4.5 -3.66 l1.7 0 c0.06 0.82 0.3 2.14 2.78 2.14 c1.26 0 2.4 -0.5 2.4 -1.66 c0 -0.84 -0.58 -1.12 -2.08 -1.5 l-2.04 -0.5 c-1.46 -0.36 -2.42 -1.1 -2.42 -2.54 c0 -2.3 1.9 -3.34 3.96 -3.34 c3.74 0 4 2.76 4 3.28 z M410.42399999999986 11 l-1.68 0 l0 6.8 c0 0.82 0.7 0.82 1.06 0.82 l0.62 0 l0 1.38 c-0.64 0.06 -1.14 0.14 -1.32 0.14 c-1.74 0 -2.12 -0.98 -2.12 -2.24 l0 -6.9 l-1.42 0 l0 -1.46 l1.42 0 l0 -2.92 l1.76 0 l0 2.92 l1.68 0 l0 1.46 z M427.09999999999985 14.76 c0 -2.7 1.52 -5.52 4.86 -5.52 s4.86 2.82 4.86 5.52 s-1.52 5.52 -4.86 5.52 s-4.86 -2.82 -4.86 -5.52 z M428.91999999999985 14.76 c0 1.4 0.52 4 3.04 4 s3.04 -2.6 3.04 -4 s-0.52 -4 -3.04 -4 s-3.04 2.6 -3.04 4 z M452.33799999999985 12.879999999999999 l0 7.12 l-1.76 0 l0 -6.44 c0 -1.82 -0.52 -2.74 -2.24 -2.74 c-1 0 -2.76 0.64 -2.76 3.48 l0 5.7 l-1.76 0 l0 -10.46 l1.66 0 l0 1.48 l0.04 0 c0.38 -0.56 1.36 -1.78 3.16 -1.78 c1.62 0 3.66 0.66 3.66 3.64 z M474.23399999999987 18.06 l2.8 -8.52 l1.94 0 c-1.22 3.42 -2.42 6.84 -3.76 10.26 c-1.66 4.24 -1.84 4.48 -4.1 4.48 c-0.26 0 -0.46 -0.08 -0.74 -0.16 l0 -1.6 c0.22 0.08 0.58 0.18 1.06 0.18 c0.92 0 1.02 -0.26 1.86 -2.42 l-3.88 -10.74 l2 0 l2.78 8.52 l0.04 0 z M484.8919999999998 14.76 c0 -2.7 1.52 -5.52 4.86 -5.52 s4.86 2.82 4.86 5.52 s-1.52 5.52 -4.86 5.52 s-4.86 -2.82 -4.86 -5.52 z M486.7119999999998 14.76 c0 1.4 0.52 4 3.04 4 s3.04 -2.6 3.04 -4 s-0.52 -4 -3.04 -4 s-3.04 2.6 -3.04 4 z M510.0899999999998 20 l-1.66 0 l0 -1.52 l-0.04 -0.04 c-0.74 1.22 -1.64 1.86 -3.32 1.86 c-1.54 0 -3.4 -0.74 -3.4 -3.24 l0 -7.52 l1.76 0 l0 6.94 c0 1.72 0.88 2.3 2.02 2.3 c2.22 0 2.88 -1.96 2.88 -3.48 l0 -5.76 l1.76 0 l0 10.46 z M519.7279999999998 13.92 l0 6.08 l-1.76 0 l0 -10.46 l1.66 0 l0 1.74 l0.04 0 c0.7 -1.22 1.62 -2.04 2.94 -2.04 c0.22 0 0.32 0.02 0.46 0.06 l0 1.82 l-0.66 0 c-1.64 0 -2.68 1.28 -2.68 2.8 z M547.0639999999999 16.72 l1.76 0 c-0.06 0.5 -0.54 1.98 -1.86 2.86 c-0.48 0.32 -1.16 0.72 -2.84 0.72 c-2.94 0 -4.68 -2.22 -4.68 -5.24 c0 -3.24 1.56 -5.82 5.02 -5.82 c3.02 0 4.5 2.4 4.5 6.1 l-7.64 0 c0 2.18 1.02 3.44 3.04 3.44 c1.66 0 2.64 -1.28 2.7 -2.06 z M541.3239999999998 13.940000000000001 l5.82 0 c-0.1 -1.62 -0.78 -3.12 -2.92 -3.12 c-1.62 0 -2.9 1.5 -2.9 3.12 z M560.882 14.620000000000001 l3.68 5.38 l-2.24 0 l-2.6 -3.94 l-2.52 3.94 l-2.22 0 l3.68 -5.38 l-3.5 -5.08 l2.26 0 l2.42 3.68 l2.42 -3.68 l2.16 0 z M578.18 16.72 l1.76 0 c-0.06 0.5 -0.54 1.98 -1.86 2.86 c-0.48 0.32 -1.16 0.72 -2.84 0.72 c-2.94 0 -4.68 -2.22 -4.68 -5.24 c0 -3.24 1.56 -5.82 5.02 -5.82 c3.02 0 4.5 2.4 4.5 6.1 l-7.64 0 c0 2.18 1.02 3.44 3.04 3.44 c1.66 0 2.64 -1.28 2.7 -2.06 z M572.4399999999999 13.940000000000001 l5.82 0 c-0.1 -1.62 -0.78 -3.12 -2.92 -3.12 c-1.62 0 -2.9 1.5 -2.9 3.12 z M595.418 13.059999999999999 l-1.7 0 c-0.22 -1.4 -1 -2.24 -2.48 -2.24 c-2.18 0 -2.88 2.08 -2.88 3.94 c0 1.8 0.44 4.02 2.86 4.02 c1.18 0 2.2 -0.88 2.5 -2.48 l1.7 0 c-0.18 1.66 -1.2 4 -4.26 4 c-2.94 0 -4.68 -2.22 -4.68 -5.24 c0 -3.24 1.56 -5.82 5.02 -5.82 c2.74 0 3.78 2 3.92 3.82 z M610.6560000000001 20 l-1.66 0 l0 -1.52 l-0.04 -0.04 c-0.74 1.22 -1.64 1.86 -3.32 1.86 c-1.54 0 -3.4 -0.74 -3.4 -3.24 l0 -7.52 l1.76 0 l0 6.94 c0 1.72 0.88 2.3 2.02 2.3 c2.22 0 2.88 -1.96 2.88 -3.48 l0 -5.76 l1.76 0 l0 10.46 z M625.9340000000002 12.52 l-1.7 0 c-0.02 -0.66 -0.26 -1.76 -2.48 -1.76 c-0.54 0 -2.08 0.18 -2.08 1.48 c0 0.86 0.54 1.06 1.9 1.4 l1.76 0.44 c2.18 0.54 2.94 1.34 2.94 2.76 c0 2.16 -1.78 3.46 -4.14 3.46 c-4.14 0 -4.44 -2.4 -4.5 -3.66 l1.7 0 c0.06 0.82 0.3 2.14 2.78 2.14 c1.26 0 2.4 -0.5 2.4 -1.66 c0 -0.84 -0.58 -1.12 -2.08 -1.5 l-2.04 -0.5 c-1.46 -0.36 -2.42 -1.1 -2.42 -2.54 c0 -2.3 1.9 -3.34 3.96 -3.34 c3.74 0 4 2.76 4 3.28 z M640.4120000000001 16.72 l1.76 0 c-0.06 0.5 -0.54 1.98 -1.86 2.86 c-0.48 0.32 -1.16 0.72 -2.84 0.72 c-2.94 0 -4.68 -2.22 -4.68 -5.24 c0 -3.24 1.56 -5.82 5.02 -5.82 c3.02 0 4.5 2.4 4.5 6.1 l-7.64 0 c0 2.18 1.02 3.44 3.04 3.44 c1.66 0 2.64 -1.28 2.7 -2.06 z M634.6720000000001 13.940000000000001 l5.82 0 c-0.1 -1.62 -0.78 -3.12 -2.92 -3.12 c-1.62 0 -2.9 1.5 -2.9 3.12 z M657.0500000000003 12.52 l-1.7 0 c-0.02 -0.66 -0.26 -1.76 -2.48 -1.76 c-0.54 0 -2.08 0.18 -2.08 1.48 c0 0.86 0.54 1.06 1.9 1.4 l1.76 0.44 c2.18 0.54 2.94 1.34 2.94 2.76 c0 2.16 -1.78 3.46 -4.14 3.46 c-4.14 0 -4.44 -2.4 -4.5 -3.66 l1.7 0 c0.06 0.82 0.3 2.14 2.78 2.14 c1.26 0 2.4 -0.5 2.4 -1.66 c0 -0.84 -0.58 -1.12 -2.08 -1.5 l-2.04 -0.5 c-1.46 -0.36 -2.42 -1.1 -2.42 -2.54 c0 -2.3 1.9 -3.34 3.96 -3.34 c3.74 0 4 2.76 4 3.28 z"></path></g>
			</g>
		</svg>
	